<svg xmlns="http://www.w3.org/2000/svg" width="24.348" height="43.826" viewBox="0 0 24.348 43.826">
    <defs>
        <clipPath id="clip-path">
            <path id="Path_1780" d="M18.918-419.121l-18-18.661a3.428 3.428 0 0 1 0-4.665l18-18.606a3.163 3.163 0 0 1 4.514 0 3.428 3.428 0 0 1 0 4.665L7.66-440.087l15.772 16.3a3.428 3.428 0 0 1 0 4.665 3.163 3.163 0 0 1-4.514.001z" class="cls-1" transform="translate(0 0)"/>
        </clipPath>
        <clipPath id="clip-path-2">
            <path id="Path_1779" d="M-16 1464.03h913.037V-513H-16z" class="cls-1" transform="translate(16 513)"/>
        </clipPath>
        <style>
            .cls-1{fill:#fff}
        </style>
    </defs>
    <g id="Group_1306" clip-path="url(#clip-path)" transform="translate(0 462)">
        <g id="Group_1305" clip-path="url(#clip-path-2)" transform="translate(-38.956 -586.173)">
            <path id="Path_1778" d="M-5-467h48.7v68.173H-5z" class="cls-1" transform="translate(31.782 578.999)"/>
        </g>
    </g>
</svg>
