<svg xmlns="http://www.w3.org/2000/svg" width="25.372" height="29.276" viewBox="0 0 25.372 29.276">
  <defs>
    <style>
      .cls-1 {
        fill: #fd9c01;
      }
    </style>
  </defs>
  <g id="Group_1304" data-name="Group 1304" transform="translate(0 0)">
    <path id="Path_494" data-name="Path 494" class="cls-1" d="M31.818,5a4.569,4.569,0,0,0-4.554,4.554,4.507,4.507,0,0,0,.234,1.423l-8.722,5.459a4.549,4.549,0,1,0,.01,6.4L27.5,28.289a4.453,4.453,0,0,0-.234,1.433,4.594,4.594,0,1,0,1.24-3.1l-8.671-5.438a4.507,4.507,0,0,0,.275-1.545,4.447,4.447,0,0,0-.285-1.555l8.671-5.428A4.551,4.551,0,1,0,31.818,5Zm0,1.952a2.6,2.6,0,1,1-2.6,2.6A2.588,2.588,0,0,1,31.818,6.952ZM15.554,17.036a2.6,2.6,0,1,1-2.6,2.6A2.588,2.588,0,0,1,15.554,17.036ZM31.818,27.12a2.6,2.6,0,1,1-2.6,2.6A2.588,2.588,0,0,1,31.818,27.12Z" transform="translate(-11 -5)"/>
  </g>
</svg>
