<svg xmlns="http://www.w3.org/2000/svg" width="28.168" height="26.543" viewBox="0 0 28.168 26.543">
  <defs>
    <style>
      .cls-1 {
        fill: #fd9c01;
      }
    </style>
  </defs>
  <g id="Group_1302" data-name="Group 1302" transform="translate(0 0)">
    <path id="Path_489" data-name="Path 489" class="cls-1" d="M174.034,206.1a.834.834,0,0,1-.478-.15,49.905,49.905,0,0,1-6.162-5.057,33.778,33.778,0,0,1-4.212-4.914,20.986,20.986,0,0,1-2.433-4.536,11.513,11.513,0,0,1-.8-3.945v-.007a7.922,7.922,0,0,1,2.238-5.683,7.339,7.339,0,0,1,4.411-2.186c.434-.042.879-.065,1.287-.065a8.1,8.1,0,0,1,3.97.91,8.7,8.7,0,0,1,2.178,1.74,8.693,8.693,0,0,1,2.178-1.74,8.1,8.1,0,0,1,3.97-.91c.408,0,.854.022,1.288.065a7.337,7.337,0,0,1,4.41,2.186,7.924,7.924,0,0,1,2.238,5.683v.007a11.506,11.506,0,0,1-.8,3.945,20.985,20.985,0,0,1-2.433,4.536,33.785,33.785,0,0,1-4.212,4.914,49.924,49.924,0,0,1-6.162,5.057A.825.825,0,0,1,174.034,206.1ZM161.606,187.5c.01,2.137,1.054,4.815,2.939,7.542a39.627,39.627,0,0,0,9.488,9.221,39.636,39.636,0,0,0,9.488-9.221c1.886-2.726,2.93-5.4,2.939-7.541a6.021,6.021,0,0,0-5.153-6.224c-.382-.037-.772-.057-1.127-.057a6.274,6.274,0,0,0-5.4,2.647.828.828,0,0,1-.714.437h-.04a.828.828,0,0,1-.73-.437,6.276,6.276,0,0,0-5.406-2.647c-.355,0-.745.02-1.126.057A6.02,6.02,0,0,0,161.606,187.5Z" transform="translate(-159.949 -179.558)"/>
  </g>
</svg>
