<svg xmlns="http://www.w3.org/2000/svg" width="22.648" height="24.033" viewBox="0 0 22.648 24.033">
    <g>
        <path fill="#fd9c01" d="M21.144 14.967a8.579 8.579 0 0 0 .248-1.891 8.5 8.5 0 0 0-.245-1.895l2.811-2.067a.427.427 0 0 0 .117-.56L22.359 5.58a.431.431 0 0 0-.545-.178l-3.241 1.422a8.554 8.554 0 0 0-3.23-1.865l-.393-3.52a.428.428 0 0 0-.425-.38h-3.433a.426.426 0 0 0-.427.38l-.391 3.52a8.547 8.547 0 0 0-3.227 1.865L3.806 5.4a.431.431 0 0 0-.545.178L1.543 8.555a.429.429 0 0 0 .118.56l2.809 2.067a8.589 8.589 0 0 0-.243 1.895 8.589 8.589 0 0 0 .243 1.895l-2.809 2.063a.431.431 0 0 0-.118.561l1.718 2.975a.429.429 0 0 0 .545.177l3.241-1.423a8.551 8.551 0 0 0 3.228 1.867l.391 3.52a.427.427 0 0 0 .427.38h3.434a.429.429 0 0 0 .425-.38l.393-3.52a8.557 8.557 0 0 0 3.23-1.867l3.241 1.423a.429.429 0 0 0 .545-.177l1.715-2.971a.428.428 0 0 0-.117-.561zm-8.334 2.4a4.293 4.293 0 1 1 4.29-4.291 4.3 4.3 0 0 1-4.29 4.292z" transform="translate(-1.486 -1.059) translate(0 0)"/>
    </g>
</svg>
