<svg id="Layer_1" data-name="Layer 1" xmlns="http://www.w3.org/2000/svg" viewBox="0 0 20 20"><defs><style>.cls-1{fill:#ff6055;}.cls-2{fill:#eef3db;}</style></defs><circle class="cls-1" cx="9.97" cy="9.98" r="9.59"/><g id="j9zjcP.tif"><path class="cls-2" d="M3.52,14.68V7.29s0,0,0-.06a.75.75,0,0,1,.75-.52c.21,0,.21,0,.22-.22a.76.76,0,0,1,.79-.79h.46A.78.78,0,0,1,6.4,6a.87.87,0,0,1,.14.59c0,.08,0,.11.1.1h.3c.08,0,.11,0,.15-.09l.72-1.45a.8.8,0,0,1,.77-.48h2.76a.82.82,0,0,1,.79.49c.23.48.48,1,.71,1.44a.14.14,0,0,0,.15.09h2.56a.77.77,0,0,1,.86.86v6.84a.89.89,0,0,1-.45.79.55.55,0,0,0-.18.06H4.1s0,0,0,0a.76.76,0,0,1-.52-.51S3.54,14.69,3.52,14.68Zm6.43.08h5.61c.26,0,.34-.08.35-.34s0-.7,0-1.05c0-.11,0-.12-.13-.12H12.47a.37.37,0,0,0-.26.1,3.06,3.06,0,0,1-1.92.88,3.18,3.18,0,0,1-2.6-.9.21.21,0,0,0-.17-.08H4.12c-.08,0-.1,0-.1.1,0,.35,0,.71,0,1.06s.08.35.36.35Zm0-7.55H4.37c-.26,0-.34.08-.35.35s0,.69,0,1c0,.1,0,.12.13.12h3.3a.38.38,0,0,0,.27-.1,3.06,3.06,0,0,1,1.92-.88,3.18,3.18,0,0,1,2.6.9.21.21,0,0,0,.17.08h3.4c.08,0,.1,0,.1-.1,0-.35,0-.7,0-1s-.08-.37-.37-.37Zm2.77,5.53h3.08c.09,0,.09,0,.09-.11q0-1.65,0-3.3c0-.1,0-.12-.12-.12H12.73A3.31,3.31,0,0,1,12.74,12.74Zm-5.54,0a3.31,3.31,0,0,1,0-3.52H4.1C4,9.22,4,9.25,4,9.3Q4,11,4,12.66c0,.06,0,.09.08.09ZM7.2,11A2.77,2.77,0,1,0,10,8.22,2.77,2.77,0,0,0,7.2,11ZM7.61,6.7h4.71l-.69-1.38a.26.26,0,0,0-.23-.12H8.53a.26.26,0,0,0-.24.13Zm-2.08,0h.3c.22,0,.22,0,.21-.23a.25.25,0,0,0-.26-.27H5.29a.25.25,0,0,0-.23.13.78.78,0,0,0,0,.34c0,.05,0,0,.08,0Z"/><path class="cls-2" d="M14.89,8.22h-.24A.25.25,0,0,1,14.4,8a.24.24,0,0,1,.25-.24h.5A.24.24,0,0,1,15.4,8a.26.26,0,0,1-.25.26Z"/><path class="cls-2" d="M13.63,7.72a.25.25,0,0,1,0,.5A.27.27,0,0,1,13.39,8,.25.25,0,0,1,13.63,7.72Z"/><path class="cls-2" d="M10,8.72A2.27,2.27,0,1,1,7.7,11,2.27,2.27,0,0,1,10,8.72Zm0,.5A1.77,1.77,0,1,0,11.73,11,1.78,1.78,0,0,0,10,9.22Z"/><path class="cls-2" d="M10,6.21h-.7C9.08,6.2,9,6.1,9,6s.12-.25.3-.25h1.42A.26.26,0,0,1,11,6c0,.15-.11.25-.29.25Z"/><path class="cls-2" d="M9.92,9.73c.17,0,.29.09.29.24s-.09.24-.26.26a.75.75,0,0,0-.74.74.25.25,0,1,1-.5,0A1.27,1.27,0,0,1,9.92,9.73Z"/></g></svg>